<?xml version="1.0" encoding="UTF-8" standalone="no"?>
<!-- Created with Inkscape (http://www.inkscape.org/) -->

<svg
   width="50"
   height="50"
   viewBox="0 0 13.229166 13.229166"
   version="1.1"
   id="svg5"
   xml:space="preserve"
   inkscape:version="1.2.1 (9c6d41e410, 2022-07-14)"
   sodipodi:docname="github_invertocat_dark.svg"
   xmlns:inkscape="http://www.inkscape.org/namespaces/inkscape"
   xmlns:sodipodi="http://sodipodi.sourceforge.net/DTD/sodipodi-0.dtd"
   xmlns="http://www.w3.org/2000/svg"
   xmlns:svg="http://www.w3.org/2000/svg"><sodipodi:namedview
     id="namedview7"
     pagecolor="#505050"
     bordercolor="#eeeeee"
     borderopacity="1"
     inkscape:showpageshadow="0"
     inkscape:pageopacity="0"
     inkscape:pagecheckerboard="0"
     inkscape:deskcolor="#505050"
     inkscape:document-units="mm"
     showgrid="false"
     inkscape:zoom="9.5144352"
     inkscape:cx="111.25201"
     inkscape:cy="66.425383"
     inkscape:window-width="3840"
     inkscape:window-height="2050"
     inkscape:window-x="-12"
     inkscape:window-y="-12"
     inkscape:window-maximized="1"
     inkscape:current-layer="layer1" /><defs
     id="defs2"><clipPath
       clipPathUnits="userSpaceOnUse"
       id="clipPath200"><path
         d="M 0,551.986 H 530.973 V 0 H 0 Z"
         id="path198" /></clipPath></defs><g
     inkscape:label="Layer 1"
     inkscape:groupmode="layer"
     id="layer1"><path
       d="m 6.6140545,1.00985 c -3.173236,0 -5.74604427,2.5728083 -5.74604427,5.7467498 0,2.5389417 1.64641387,4.6926502 3.92994437,5.4528862 0.2875139,0.05256 0.3922889,-0.124883 0.3922889,-0.277283 0,-0.136173 -0.00494,-0.49777 -0.00776,-0.977195 C 3.5840463,11.302141 3.2467907,10.184541 3.2467907,10.184541 2.9853824,9.5209665 2.6086157,9.3442248 2.6086157,9.3442248 2.0868574,8.9875665 2.6481269,8.994622 2.6481269,8.994622 3.2249185,9.0355442 3.5283074,9.5869359 3.5283074,9.5869359 4.0408935,10.465 4.873449,10.211353 5.2008268,10.064597 5.2530379,9.693122 5.4012046,9.4398276 5.565599,9.296247 4.2896018,9.1512554 2.947988,8.658072 2.947988,6.4560332 c 0,-0.6272389 0.2240138,-1.1401778 0.5916083,-1.5419916 -0.059267,-0.1453445 -0.2564695,-0.7295445 0.056092,-1.520825 0,0 0.4826,-0.1545167 1.5804445,0.5891389 0.4582583,-0.1273528 0.9500305,-0.1912056 1.4386277,-0.1933223 0.4878917,0.00212 0.9796639,0.06597 1.4386277,0.1933223 1.0971389,-0.7436556 1.5786806,-0.5891389 1.5786806,-0.5891389 0.3136194,0.7912805 0.1164166,1.3754805 0.05715,1.520825 0.3682992,0.4018138 0.5909022,0.9147527 0.5909022,1.5419916 0,2.2076833 -1.34373,2.6934583 -2.6239605,2.8356277 0.206375,0.1774472 0.3901722,0.5281083 0.3901722,1.0643301 0,0.767998 -0.00706,1.387828 -0.00706,1.576212 0,0.153811 0.1033639,0.332669 0.3951111,0.276577 C 10.716154,11.447133 12.361157,9.2948359 12.361157,6.7565998 12.361157,3.5826583 9.7879961,1.00985 6.6140545,1.00985"
       style="fill:#000000;fill-opacity:1;fill-rule:evenodd;stroke:none;stroke-width:0.352778"
       id="path204" /></g></svg>
