<?xml version="1.0" encoding="UTF-8" standalone="no"?>
<!-- Created with Inkscape (http://www.inkscape.org/) -->

<svg
   width="50"
   height="50"
   viewBox="0 0 13.229166 13.229166"
   version="1.1"
   id="svg5"
   xml:space="preserve"
   inkscape:version="1.2.1 (9c6d41e410, 2022-07-14)"
   sodipodi:docname="github_invertocat_dark.svg"
   xmlns:inkscape="http://www.inkscape.org/namespaces/inkscape"
   xmlns:sodipodi="http://sodipodi.sourceforge.net/DTD/sodipodi-0.dtd"
   xmlns="http://www.w3.org/2000/svg"
   xmlns:svg="http://www.w3.org/2000/svg"><sodipodi:namedview
     id="namedview7"
     pagecolor="#505050"
     bordercolor="#eeeeee"
     borderopacity="1"
     inkscape:showpageshadow="0"
     inkscape:pageopacity="0"
     inkscape:pagecheckerboard="0"
     inkscape:deskcolor="#505050"
     inkscape:document-units="mm"
     showgrid="false"
     inkscape:zoom="26.910887"
     inkscape:cx="40.782752"
     inkscape:cy="26.104677"
     inkscape:window-width="3840"
     inkscape:window-height="2050"
     inkscape:window-x="-12"
     inkscape:window-y="-12"
     inkscape:window-maximized="1"
     inkscape:current-layer="layer1" /><defs
     id="defs2"><clipPath
       clipPathUnits="userSpaceOnUse"
       id="clipPath200"><path
         d="M 0,551.986 H 530.973 V 0 H 0 Z"
         id="path198" /></clipPath></defs><g
     inkscape:label="Layer 1"
     inkscape:groupmode="layer"
     id="layer1"><path
       d="M 6.6139743,0.16327035 C 2.9614297,0.16327035 5.6933333e-6,3.1246943 5.6933333e-6,6.7780511 5.6933333e-6,9.700493 1.8951058,12.179513 4.5235574,13.054581 c 0.3309421,0.0605 0.451543,-0.143746 0.451543,-0.319166 0,-0.156742 -0.00569,-0.572957 -0.00893,-1.124798 C 3.1262915,12.010184 2.7380946,10.723773 2.7380946,10.723773 2.4372012,9.959562 2.0035249,9.7561236 2.0035249,9.7561236 1.4029564,9.3459991 2.0490041,9.3541204 2.0490041,9.3541204 2.7129186,9.4008178 3.0621335,10.035902 3.0621335,10.035902 3.6521442,11.046595 4.6104551,10.754635 4.9872824,10.585306 5.0473799,10.158127 5.2179267,9.8665731 5.4071525,9.701305 3.9384193,9.5344128 2.3941583,8.9667355 2.3941583,6.4320847 c 0,-0.7219816 0.2578506,-1.3123985 0.6809692,-1.7749053 C 3.0069084,4.489881 2.7799191,3.8174393 3.139692,2.906638 c 0,0 0.5554955,-0.1778559 1.8191663,0.6781267 C 5.4863349,3.4377695 6.052388,3.364678 6.6147865,3.3622417 7.1763728,3.36468 7.7424258,3.4377702 8.270715,3.5847647 9.5335737,2.7287821 10.087851,2.906638 10.087851,2.906638 c 0.36099,0.9108013 0.134001,1.583243 0.06578,1.7505414 0.423931,0.4625068 0.680157,1.0529237 0.680157,1.7749053 0,2.5411478 -1.5466971,3.1002978 -3.0203031,3.2639415 0.2375474,0.2042501 0.4491067,0.6078778 0.4491067,1.2250948 0,0.884001 -0.00812,1.597455 -0.00812,1.814294 0,0.177044 0.1189768,0.382918 0.4547916,0.318354 C 11.33569,12.177076 13.229167,9.6996807 13.229167,6.7780511 13.229162,3.1246943 10.267331,0.16327035 6.6139743,0.16327035"
       style="fill:#000000;fill-opacity:1;fill-rule:evenodd;stroke:none;stroke-width:0.406064"
       id="path378" /></g></svg>
