<?xml version="1.0" encoding="UTF-8" standalone="no"?>
<!-- Created with Inkscape (http://www.inkscape.org/) -->

<svg
   width="50"
   height="50"
   viewBox="0 0 13.229166 13.229166"
   version="1.1"
   id="svg5"
   xml:space="preserve"
   inkscape:version="1.2.1 (9c6d41e410, 2022-07-14)"
   sodipodi:docname="github_invertocat_light.svg"
   xmlns:inkscape="http://www.inkscape.org/namespaces/inkscape"
   xmlns:sodipodi="http://sodipodi.sourceforge.net/DTD/sodipodi-0.dtd"
   xmlns="http://www.w3.org/2000/svg"
   xmlns:svg="http://www.w3.org/2000/svg"><sodipodi:namedview
     id="namedview7"
     pagecolor="#505050"
     bordercolor="#eeeeee"
     borderopacity="1"
     inkscape:showpageshadow="0"
     inkscape:pageopacity="0"
     inkscape:pagecheckerboard="0"
     inkscape:deskcolor="#505050"
     inkscape:document-units="mm"
     showgrid="false"
     inkscape:zoom="9.5144352"
     inkscape:cx="80.03628"
     inkscape:cy="40.044416"
     inkscape:window-width="3840"
     inkscape:window-height="2050"
     inkscape:window-x="-12"
     inkscape:window-y="-12"
     inkscape:window-maximized="1"
     inkscape:current-layer="layer1" /><defs
     id="defs2"><clipPath
       clipPathUnits="userSpaceOnUse"
       id="clipPath200"><path
         d="M 0,551.986 H 530.973 V 0 H 0 Z"
         id="path198" /></clipPath></defs><g
     inkscape:label="Layer 1"
     inkscape:groupmode="layer"
     id="layer1"><g
       id="g202"
       transform="matrix(0.35277777,0,0,-0.35277777,64.122285,8.695216)"><path
         d="m -163.01546,21.78529 c -8.995,0 -16.288,-7.293 -16.288,-16.29 0,-7.197 4.667,-13.302 11.14,-15.457 0.815,-0.149 1.112,0.354 1.112,0.786 0,0.386 -0.014,1.411 -0.022,2.77 -4.531,-0.984 -5.487,2.184 -5.487,2.184 -0.741,1.881 -1.809,2.382 -1.809,2.382 -1.479,1.011 0.112,0.991 0.112,0.991 1.635,-0.116 2.495,-1.679 2.495,-1.679 1.453,-2.489 3.813,-1.77 4.741,-1.354 0.148,1.053 0.568,1.771 1.034,2.178 -3.617,0.411 -7.42,1.809 -7.42,8.051 0,1.778 0.635,3.232 1.677,4.371 -0.168,0.412 -0.727,2.068 0.159,4.311 0,0 1.368,0.438 4.48,-1.67 1.299,0.361 2.693,0.542 4.078,0.548 1.383,-0.006 2.777,-0.187 4.078,-0.548 3.11,2.108 4.475,1.67 4.475,1.67 0.889,-2.243 0.33,-3.899 0.162,-4.311 1.044,-1.139 1.675,-2.593 1.675,-4.371 0,-6.258 -3.809,-7.635 -7.438,-8.038 0.585,-0.503 1.106,-1.497 1.106,-3.017 0,-2.177 -0.02,-3.934 -0.02,-4.468 0,-0.436 0.293,-0.943 1.12,-0.784 6.468,2.159 11.131,8.26 11.131,15.455 0,8.997 -7.294,16.29 -16.291,16.29"
         style="fill:#1b1817;fill-opacity:1;fill-rule:evenodd;stroke:none"
         id="path204" /></g><path
       d="m 6.6140542,1.00985 c -3.173236,0 -5.74604432,2.5728083 -5.74604432,5.7467499 0,2.5389416 1.64641382,4.6926501 3.92994432,5.4528861 0.2875139,0.05256 0.3922889,-0.124883 0.3922889,-0.277283 0,-0.136173 -0.00494,-0.49777 -0.00776,-0.977195 C 3.5840459,11.302141 3.2467904,10.184541 3.2467904,10.184541 2.9853821,9.5206137 2.6086154,9.343872 2.6086154,9.343872 2.0868571,8.9875665 2.6481265,8.994622 2.6481265,8.994622 3.2249182,9.0351915 3.528307,9.5869359 3.528307,9.5869359 4.0408931,10.465 4.8734487,10.211353 5.2008265,10.064244 5.2530376,9.693122 5.4012042,9.4398276 5.5655987,9.296247 4.2896015,9.1512554 2.9479876,8.6580721 2.9479876,6.4560332 c 0,-0.6272389 0.2240139,-1.1401777 0.5916083,-1.5419916 -0.059267,-0.1453445 -0.2564694,-0.7295444 0.056092,-1.520825 0,0 0.4826,-0.1545166 1.5804444,0.5891389 0.458258,-0.1277056 0.9500302,-0.1912056 1.4386275,-0.1933222 0.4878916,0.00212 0.9796638,0.065617 1.4386277,0.1933222 C 9.1505264,3.2387 9.632068,3.3932166 9.632068,3.3932166 c 0.3136195,0.7912806 0.1164167,1.3754805 0.05715,1.520825 0.3683,0.4018139 0.590903,0.9147527 0.590903,1.5419916 0,2.2076833 -1.3437307,2.6934583 -2.6239613,2.8356277 0.206375,0.1774472 0.3901722,0.5281084 0.3901722,1.0643301 0,0.767998 -0.00706,1.387828 -0.00706,1.576212 0,0.153811 0.1033639,0.332669 0.3951111,0.276577 2.281771,-0.761647 3.926774,-2.9139441 3.926774,-5.4521801 0,-3.1739416 -2.5731612,-5.7467499 -5.7471028,-5.7467499"
       style="fill:#ffffff;fill-opacity:1;fill-rule:evenodd;stroke:none;stroke-width:0.352778"
       id="path378" /></g></svg>
