<?xml version="1.0" encoding="UTF-8" standalone="no"?>
<svg
   height="235.452"
   width="261.728"
   viewBox="0 0 245.371 220.736"
   version="1.1"
   id="svg187"
   sodipodi:docname="itchio_textless_light.svg"
   inkscape:version="1.2.1 (9c6d41e410, 2022-07-14)"
   xmlns:inkscape="http://www.inkscape.org/namespaces/inkscape"
   xmlns:sodipodi="http://sodipodi.sourceforge.net/DTD/sodipodi-0.dtd"
   xmlns="http://www.w3.org/2000/svg"
   xmlns:svg="http://www.w3.org/2000/svg">
  <defs
     id="defs191" />
  <sodipodi:namedview
     id="namedview189"
     pagecolor="#505050"
     bordercolor="#eeeeee"
     borderopacity="1"
     inkscape:showpageshadow="0"
     inkscape:pageopacity="0"
     inkscape:pagecheckerboard="0"
     inkscape:deskcolor="#505050"
     showgrid="false"
     inkscape:zoom="1.0023275"
     inkscape:cx="131.19465"
     inkscape:cy="117.726"
     inkscape:window-width="3840"
     inkscape:window-height="2050"
     inkscape:window-x="-12"
     inkscape:window-y="-12"
     inkscape:window-maximized="1"
     inkscape:current-layer="layer1" />
  <g
     inkscape:groupmode="layer"
     id="layer1"
     inkscape:label="Layer 1">
    <path
       d="M 31.99,1.365 C 21.287,7.72 0.2,31.945 0,38.298 v 10.516 c 0,13.33 12.46,25.046 23.773,25.046 13.584,0 24.902,-11.258 24.903,-24.62 0,13.362 10.93,24.62 24.515,24.62 13.586,0 24.165,-11.258 24.165,-24.62 0,13.362 11.622,24.62 25.207,24.62 h 0.246 c 13.586,0 25.208,-11.258 25.208,-24.62 0,13.362 10.58,24.62 24.164,24.62 13.585,0 24.515,-11.258 24.515,-24.62 0,13.362 11.32,24.62 24.903,24.62 11.313,0 23.773,-11.714 23.773,-25.046 V 38.298 C 245.172,31.944 224.085,7.718 213.384,1.365 180.118,0.197 157.056,-0.005 122.685,0 88.315,0.003 41.457,0.54 31.988,1.365 Z m 65.194,66.217 a 28.025,28.025 0 0 1 -4.78,6.155 c -5.128,5.014 -12.157,8.122 -19.906,8.122 A 28.482,28.482 0 0 1 52.55,73.733 c -1.858,-1.82 -3.27,-3.766 -4.563,-6.032 l -0.006,0.004 c -1.292,2.27 -3.092,4.215 -4.954,6.037 a 28.5,28.5 0 0 1 -19.948,8.12 c -0.934,0 -1.906,-0.258 -2.692,-0.528 -1.092,11.372 -1.553,22.24 -1.716,30.164 l -0.002,0.045 c -0.02,4.024 -0.04,7.333 -0.06,11.93 0.21,23.86 -2.363,77.334 10.52,90.473 19.964,4.655 56.7,6.775 93.555,6.788 h 0.006 c 36.854,-0.013 73.59,-2.133 93.554,-6.788 12.883,-13.14 10.31,-66.614 10.52,-90.474 -0.022,-4.596 -0.04,-7.905 -0.06,-11.93 l -0.003,-0.045 c -0.162,-7.926 -0.623,-18.793 -1.715,-30.165 -0.786,0.27 -1.757,0.528 -2.692,0.528 a 28.5,28.5 0 0 1 -19.948,-8.12 c -1.862,-1.822 -3.662,-3.766 -4.955,-6.037 l -0.006,-0.004 c -1.294,2.266 -2.705,4.213 -4.563,6.032 a 28.48,28.48 0 0 1 -19.947,8.125 c -7.748,0 -14.778,-3.11 -19.906,-8.123 a 28.025,28.025 0 0 1 -4.78,-6.155 27.99,27.99 0 0 1 -4.736,6.155 28.49,28.49 0 0 1 -19.95,8.124 c -0.27,0 -0.54,-0.012 -0.81,-0.02 h -0.007 c -0.27,0.008 -0.54,0.02 -0.813,0.02 a 28.49,28.49 0 0 1 -19.95,-8.123 27.992,27.992 0 0 1 -4.736,-6.155 z m -20.486,26.49 -0.002,0.01 h 0.015 c 8.113,0.017 15.32,0 24.25,9.746 7.028,-0.737 14.372,-1.105 21.722,-1.094 h 0.006 c 7.35,-0.01 14.694,0.357 21.723,1.094 8.93,-9.747 16.137,-9.73 24.25,-9.746 h 0.014 l -0.002,-0.01 c 3.833,0 19.166,0 29.85,30.007 L 210,165.244 c 8.504,30.624 -2.723,31.373 -16.727,31.4 -20.768,-0.773 -32.267,-15.855 -32.267,-30.935 -11.496,1.884 -24.907,2.826 -38.318,2.827 h -0.006 c -13.412,0 -26.823,-0.943 -38.318,-2.827 0,15.08 -11.5,30.162 -32.267,30.935 -14.004,-0.027 -25.23,-0.775 -16.726,-31.4 L 46.85,124.08 C 57.534,94.073 72.867,94.073 76.7,94.073 Z m 45.985,23.582 v 0.006 c -0.02,0.02 -21.863,20.08 -25.79,27.215 l 14.304,-0.573 v 12.474 c 0,0.584 5.74,0.346 11.486,0.08 h 0.006 c 5.744,0.266 11.485,0.504 11.485,-0.08 v -12.474 l 14.304,0.573 c -3.928,-7.135 -25.79,-27.215 -25.79,-27.215 v -0.006 l -0.003,0.002 z"
       color="#000000"
       id="path185"
       style="fill:#ffffff;fill-opacity:1" />
  </g>
</svg>
