<?xml version="1.0" encoding="UTF-8" standalone="no"?>
<svg
   xml:space="preserve"
   viewBox="0 0 200 200"
   version="1.1"
   id="svg980"
   sodipodi:docname="twitter_dark.svg"
   width="200"
   height="200"
   inkscape:version="1.2.1 (9c6d41e410, 2022-07-14)"
   xmlns:inkscape="http://www.inkscape.org/namespaces/inkscape"
   xmlns:sodipodi="http://sodipodi.sourceforge.net/DTD/sodipodi-0.dtd"
   xmlns="http://www.w3.org/2000/svg"
   xmlns:svg="http://www.w3.org/2000/svg"><defs
   id="defs984" /><sodipodi:namedview
   id="namedview982"
   pagecolor="#505050"
   bordercolor="#eeeeee"
   borderopacity="1"
   inkscape:showpageshadow="0"
   inkscape:pageopacity="0"
   inkscape:pagecheckerboard="0"
   inkscape:deskcolor="#505050"
   showgrid="false"
   inkscape:zoom="3.272102"
   inkscape:cx="152.34855"
   inkscape:cy="94.43471"
   inkscape:window-width="3840"
   inkscape:window-height="2050"
   inkscape:window-x="-12"
   inkscape:window-y="-12"
   inkscape:window-maximized="1"
   inkscape:current-layer="svg980" />
  <path
   fill="#1d9bf0"
   d="m 179.52468,59.200741 c 0.12188,1.763152 0.12188,3.526305 0.12188,5.305708 0,54.218971 -41.27565,116.749951 -116.749952,116.749951 v -0.0325 C 40.601259,181.2564 18.769043,174.87005 0,162.82861 c 3.2419257,0.39 6.5001016,0.58501 9.7664026,0.59313 18.4765384,0.0163 36.4249444,-6.18322 50.9607964,-17.59902 C 43.1688,145.48959 27.771684,134.04128 22.39285,117.3279 c 6.150721,1.18627 12.48832,0.94251 18.525289,-0.70689 C 21.77534,112.75345 8.0032501,95.93444 8.0032501,76.401635 V 75.881626 C 13.707089,79.058551 20.093439,80.821704 26.626041,81.016707 8.5963843,68.967143 3.0387975,44.981769 13.926468,26.228976 34.759293,51.863751 65.496648,67.447745 98.492789,69.097145 95.185862,54.845673 99.703433,39.911689 110.3636,29.893408 c 16.52651,-15.535243 42.51879,-14.73898 58.05403,1.779403 9.18952,-1.811904 17.99716,-5.183831 26.05728,-9.961406 -3.06317,9.498273 -9.47389,17.566525 -18.03778,22.69348 8.13325,-0.958765 16.07963,-3.136299 23.56287,-6.459476 -5.50884,8.255129 -12.44769,15.445866 -20.47532,21.255332 z"
   id="path978"
   style="fill:#000000;fill-opacity:1;stroke-width:0.812513" />
</svg>
