<?xml version="1.0" encoding="UTF-8" standalone="no"?>
<!-- Generator: Adobe Illustrator 19.2.1, SVG Export Plug-In . SVG Version: 6.00 Build 0)  -->

<svg
   version="1.1"
   id="layer"
   x="0px"
   y="0px"
   viewBox="0 0 652 652"
   style="enable-background:new 0 0 652 652;"
   xml:space="preserve"
   sodipodi:docname="vrchat_dark.svg"
   inkscape:version="1.2.1 (9c6d41e410, 2022-07-14)"
   xmlns:inkscape="http://www.inkscape.org/namespaces/inkscape"
   xmlns:sodipodi="http://sodipodi.sourceforge.net/DTD/sodipodi-0.dtd"
   xmlns="http://www.w3.org/2000/svg"
   xmlns:svg="http://www.w3.org/2000/svg"><defs
   id="defs6" /><sodipodi:namedview
   id="namedview4"
   pagecolor="#505050"
   bordercolor="#eeeeee"
   borderopacity="1"
   inkscape:showpageshadow="0"
   inkscape:pageopacity="0"
   inkscape:pagecheckerboard="0"
   inkscape:deskcolor="#505050"
   showgrid="false"
   inkscape:zoom="2.047573"
   inkscape:cx="295.22757"
   inkscape:cy="351.63581"
   inkscape:window-width="3840"
   inkscape:window-height="2050"
   inkscape:window-x="-12"
   inkscape:window-y="-12"
   inkscape:window-maximized="1"
   inkscape:current-layer="layer" />
<path
   id="vrchat-logo"
   d="m 610.1824,184.77685 c 9.112,0 17.3664,3.752 23.3696,9.7552 6.0032,6.0032 9.648,14.3648 9.648,23.4768 v 137.1088 c 0,9.112 -3.752,17.4736 -9.648,23.4768 -5.1456,5.1456 -12.0064,8.6832 -19.6176,9.5408 v 50.7056 c 0,11.8992 -9.5408,20.7968 -21.1184,16.5088 -4.0736,-1.5008 -8.576,-5.0384 -12.9712,-10.8272 l -43.7376,-56.1728 H 33.0176 c -9.112,0 -17.3664,-3.752 -23.3696,-9.7552 C 3.6448,372.59125 0,364.22965 0,355.11765 v -137.1088 c 0,-9.112 3.752,-17.4736 9.648,-23.4768 6.0032,-6.0032 14.2576,-9.7552 23.3696,-9.7552 z m 0,12.4352 H 33.0176 c -5.6816,0 -10.8272,2.3584 -14.5792,6.1104 -3.752,3.752 -6.1104,9.0048 -6.1104,14.6864 v 137.1088 c 0,5.6816 2.3584,10.9344 6.1104,14.6864 3.752,3.752 8.8976,6.1104 14.5792,6.1104 H 542.432 c 17.152,21.6544 33.768,43.7376 50.92,65.392 2.68,3.6448 8.3616,4.288 8.2544,-2.7872 v -62.6048 h 8.6832 c 5.6816,0 10.8272,-2.3584 14.5792,-6.1104 3.752,-3.752 6.1104,-9.0048 6.1104,-14.6864 v -137.1088 c 0,-5.6816 -2.3584,-10.9344 -6.1104,-14.6864 -3.8592,-3.752 -9.0048,-6.1104 -14.6864,-6.1104 z m -31.4096,25.6208 c 11.6848,0 21.2256,9.648 21.2256,21.5472 v 87.368 c 0,11.792 -9.5408,21.5472 -21.2256,21.5472 H 267.1424 c -11.6848,0 -21.2256,-9.648 -21.2256,-21.5472 v -87.368 c 0,-11.792 9.5408,-21.5472 21.2256,-21.5472 z M 174.2,233.66005 c 4.9312,0 9.5408,0.536 13.936,1.608 4.288,1.072 8.1472,2.7872 11.4704,5.2528 3.3232,2.4656 5.896,5.6816 7.7184,9.648 1.8224,4.0736 2.7872,9.112 2.7872,15.1152 0,8.6832 -1.9296,15.4368 -5.6816,20.368 -3.752,4.9312 -8.4688,8.1472 -14.1504,9.8624 l 19.832,36.7696 c 0.3216,0.4288 0.536,0.8576 0.6432,1.2864 0.1072,0.4288 0.1072,0.8576 0.1072,1.1792 0,1.1792 -0.4288,2.4656 -1.1792,3.752 -0.7504,1.2864 -1.7152,2.3584 -2.8944,3.3232 -1.1792,0.9648 -2.4656,1.7152 -3.9664,2.3584 -1.5008,0.6432 -2.8944,0.8576 -4.288,0.8576 -1.3936,0 -2.68,-0.4288 -3.8592,-1.1792 -1.1792,-0.8576 -2.144,-1.9296 -3.0016,-3.4304 l -21.5472,-41.808 h -12.7568 v 39.4496 c 0,2.0368 -0.9648,3.5376 -3.0016,4.6096 -2.0368,1.072 -4.288,1.608 -6.8608,1.608 -2.4656,0 -4.7168,-0.536 -6.7536,-1.608 -2.0368,-1.072 -3.1088,-2.5728 -3.1088,-4.6096 v -98.4096 c 0,-1.608 0.536,-3.0016 1.7152,-4.1808 1.1792,-1.1792 2.68,-1.8224 4.6096,-1.8224 z m -59.496,0 c 1.2864,0 2.68,0.2144 4.1808,0.6432 1.5008,0.4288 2.7872,0.9648 3.9664,1.7152 1.1792,0.7504 2.2512,1.608 3.0016,2.5728 0.7504,0.9648 1.1792,2.0368 1.1792,3.216 0,0.2144 -0.1072,0.7504 -0.3216,1.5008 l -28.8368,95.0864 c -0.7504,2.3584 -2.2512,3.9664 -4.7168,5.0384 -2.3584,1.072 -5.0384,1.608 -7.9328,1.608 -2.8944,0 -5.5744,-0.536 -7.9328,-1.608 -2.3584,-1.072 -3.9664,-2.7872 -4.7168,-5.0384 l -29.0512,-95.0864 c -0.2144,-0.8576 -0.3216,-1.2864 -0.3216,-1.5008 0,-1.1792 0.4288,-2.3584 1.1792,-3.3232 0.7504,-0.9648 1.8224,-1.8224 3.0016,-2.5728 1.1792,-0.7504 2.5728,-1.2864 3.9664,-1.7152 1.5008,-0.4288 2.7872,-0.6432 4.1808,-0.6432 1.7152,0 3.1088,0.3216 4.288,0.8576 1.1792,0.6432 1.9296,1.608 2.3584,3.0016 l 23.048,81.9008 22.8336,-81.9008 c 0.4288,-1.3936 1.1792,-2.4656 2.3584,-3.0016 1.1792,-0.4288 2.5728,-0.7504 4.288,-0.7504 z m 182.3472,-0.4288 c -4.7168,0 -9.112,0.6432 -13.2928,1.9296 -4.1808,1.2864 -7.8256,3.216 -10.9344,6.0032 -3.1088,2.68 -5.5744,6.2176 -7.3968,10.6128 -1.8224,4.3952 -2.7872,9.7552 -2.7872,16.08 v 0 42.0224 c 0,6.3248 0.8576,11.6848 2.68,16.08 1.8224,4.3952 4.288,7.9328 7.3968,10.6128 3.1088,2.68 6.7536,4.7168 10.9344,6.0032 4.1808,1.2864 8.576,1.9296 13.2928,1.9296 5.1456,0 9.9696,-0.7504 14.2576,-2.144 4.288,-1.3936 8.1472,-3.4304 11.3632,-6.0032 3.216,-2.5728 5.6816,-5.6816 7.3968,-9.4336 1.7152,-3.752 2.5728,-7.8256 2.5728,-12.328 0,-3.8592 -0.7504,-6.432 -2.3584,-7.7184 -1.608,-1.2864 -4.0736,-1.9296 -7.3968,-1.9296 -2.5728,0 -4.7168,0.4288 -6.5392,1.3936 -1.8224,0.8576 -2.7872,2.4656 -3.0016,4.824 -0.1072,1.608 -0.3216,3.3232 -0.6432,5.2528 -0.3216,1.8224 -0.9648,3.6448 -2.0368,5.2528 -0.9648,1.608 -2.4656,3.0016 -4.5024,4.0736 -2.0368,1.072 -4.7168,1.608 -8.04,1.608 -5.1456,0 -9.112,-1.3936 -11.792,-4.1808 -2.68,-2.7872 -4.0736,-7.1824 -4.0736,-13.0784 v 0 -42.0224 c 0,-5.896 1.3936,-10.2912 4.0736,-13.0784 2.68,-2.7872 6.5392,-4.1808 11.5776,-4.1808 3.5376,0 6.3248,0.536 8.3616,1.608 2.0368,1.072 3.5376,2.4656 4.5024,4.0736 1.072,1.608 1.7152,3.216 2.0368,4.9312 0.3216,1.608 0.536,3.1088 0.6432,4.288 0.1072,2.3584 1.072,3.9664 2.7872,4.824 1.8224,0.8576 4.0736,1.3936 6.8608,1.3936 3.3232,0 5.6816,-0.6432 7.2896,-1.9296 1.608,-1.2864 2.3584,-3.8592 2.3584,-7.7184 0,-4.288 -0.8576,-8.2544 -2.5728,-11.792 -1.7152,-3.5376 -4.1808,-6.5392 -7.2896,-9.0048 -3.1088,-2.4656 -6.8608,-4.3952 -11.256,-5.6816 -4.5024,-1.8224 -9.3264,-2.5728 -14.472,-2.5728 z m 112.2384,0 c -2.4656,0 -4.7168,0.4288 -6.7536,1.3936 -2.0368,0.9648 -3.0016,2.4656 -3.0016,4.6096 v 0 39.3424 h -33.5536 v -39.3424 c 0,-2.144 -0.9648,-3.6448 -3.0016,-4.6096 -2.0368,-0.9648 -4.288,-1.3936 -6.6464,-1.3936 -2.4656,0 -4.7168,0.4288 -6.7536,1.3936 -2.0368,0.9648 -3.0016,2.4656 -3.0016,4.6096 v 0 97.9808 c 0,2.0368 0.9648,3.5376 3.0016,4.6096 2.0368,1.072 4.1808,1.608 6.7536,1.608 2.3584,0 4.6096,-0.536 6.6464,-1.608 2.0368,-1.072 3.0016,-2.5728 3.0016,-4.6096 v 0 -43.3088 h 33.5536 v 43.3088 c 0,2.0368 0.9648,3.5376 3.0016,4.6096 2.0368,1.072 4.1808,1.608 6.7536,1.608 2.3584,0 4.6096,-0.536 6.6464,-1.608 2.0368,-1.072 3.0016,-2.5728 3.0016,-4.6096 v 0 -97.9808 c 0,-2.144 -0.9648,-3.6448 -3.0016,-4.6096 -2.144,-0.8576 -4.288,-1.3936 -6.6464,-1.3936 z m 62.3904,-0.8576 c -2.7872,0 -5.36,0.536 -7.7184,1.608 -2.3584,1.072 -3.9664,2.7872 -4.6096,5.0384 v 0 l -28.7296,94.872 c -0.2144,0.8576 -0.3216,1.2864 -0.3216,1.5008 0,1.1792 0.4288,2.3584 1.1792,3.3232 0.7504,0.9648 1.8224,1.8224 3.0016,2.5728 1.1792,0.7504 2.4656,1.2864 3.9664,1.608 1.3936,0.4288 2.7872,0.6432 4.0736,0.6432 1.7152,0 3.1088,-0.3216 4.288,-0.8576 1.1792,-0.6432 1.9296,-1.608 2.3584,-3.0016 v 0 l 5.6816,-20.0464 h 34.0896 l 5.6816,20.0464 c 0.4288,1.3936 1.1792,2.3584 2.3584,3.0016 1.1792,0.6432 2.5728,0.8576 4.288,0.8576 1.2864,0 2.68,-0.2144 4.0736,-0.6432 1.3936,-0.4288 2.7872,-0.9648 3.9664,-1.7152 1.1792,-0.7504 2.144,-1.608 3.0016,-2.5728 0.8576,-0.9648 1.1792,-2.0368 1.1792,-3.216 0,-0.2144 -0.1072,-0.7504 -0.3216,-1.5008 v 0 l -28.7296,-94.872 c -0.6432,-2.3584 -2.2512,-3.9664 -4.6096,-5.0384 -2.5728,-1.072 -5.2528,-1.608 -8.1472,-1.608 z m 106.128,0.8576 h -63.0336 c -2.0368,0 -3.6448,0.9648 -4.6096,2.7872 -0.9648,1.8224 -1.5008,3.8592 -1.5008,6.0032 0,2.4656 0.536,4.5024 1.608,6.2176 1.072,1.7152 2.5728,2.68 4.5024,2.68 v 0 h 21.8688 v 86.4032 c 0,2.0368 0.9648,3.5376 3.0016,4.6096 2.0368,1.072 4.1808,1.608 6.7536,1.608 2.3584,0 4.6096,-0.536 6.6464,-1.608 2.0368,-1.072 3.0016,-2.5728 3.0016,-4.6096 v 0 -86.4032 h 21.7616 c 1.9296,0 3.5376,-0.8576 4.5024,-2.68 1.072,-1.8224 1.608,-3.8592 1.608,-6.2176 0,-2.144 -0.536,-4.0736 -1.5008,-6.0032 -0.9648,-1.8224 -2.5728,-2.7872 -4.6096,-2.7872 z m -106.128,24.656 12.9712,46.3104 h -25.9424 z m -297.48,-6.968 h -16.616 v 32.2672 h 16.616 1.2864 c 4.288,-0.2144 7.8256,-1.3936 10.5056,-3.5376 2.8944,-2.3584 4.3952,-6.5392 4.3952,-12.4352 0,-6.0032 -1.5008,-10.184 -4.3952,-12.5424 -2.8944,-2.5728 -6.8608,-3.752 -11.792,-3.752 z"
   style="stroke-width:1.072" />
</svg>
